<svg xmlns="http://www.w3.org/2000/svg" x="0px" y="0px"
width="40" height="40"
viewBox="0 0 172 172"
style=" fill:#000000;"><g fill="none" fill-rule="nonzero" stroke="none" stroke-width="1" stroke-linecap="butt" stroke-linejoin="miter" stroke-miterlimit="10" stroke-dasharray="" stroke-dashoffset="0" font-family="none" font-weight="none" font-size="none" text-anchor="none" style="mix-blend-mode: normal"><path d="M0,172v-172h172v172z" fill="none"></path><g><path d="M10.75,15.05h150.5v141.9h-150.5z" fill="#ffffff"></path><path d="M159.1,17.2v137.6h-146.2v-137.6h146.2M163.4,12.9h-154.8v146.2h154.8v-146.2z" fill="#4fb3b3"></path><path d="M12.9,17.2h146.2v34.4h-146.2z" fill="#4fb3b3"></path><path d="M25.8,30.1h8.6v8.6h-8.6zM43,30.1h8.6v8.6h-8.6zM60.2,30.1h8.6v8.6h-8.6z" fill="#ffffff"></path><path d="M25.8,68.8h55.9v73.1h-55.9z" fill="#4fb3b3"></path><path d="M144.05,73.1h-47.3c-1.1825,0 -2.15,-0.9675 -2.15,-2.15v0c0,-1.1825 0.9675,-2.15 2.15,-2.15h47.3c1.1825,0 2.15,0.9675 2.15,2.15v0c0,1.1825 -0.9675,2.15 -2.15,2.15zM144.05,90.3h-47.3c-1.1825,0 -2.15,-0.9675 -2.15,-2.15v0c0,-1.1825 0.9675,-2.15 2.15,-2.15h47.3c1.1825,0 2.15,0.9675 2.15,2.15v0c0,1.1825 -0.9675,2.15 -2.15,2.15zM144.05,107.5h-47.3c-1.1825,0 -2.15,-0.9675 -2.15,-2.15v0c0,-1.1825 0.9675,-2.15 2.15,-2.15h47.3c1.1825,0 2.15,0.9675 2.15,2.15v0c0,1.1825 -0.9675,2.15 -2.15,2.15zM144.05,124.7h-47.3c-1.1825,0 -2.15,-0.9675 -2.15,-2.15v0c0,-1.1825 0.9675,-2.15 2.15,-2.15h47.3c1.1825,0 2.15,0.9675 2.15,2.15v0c0,1.1825 -0.9675,2.15 -2.15,2.15zM144.05,141.9h-47.3c-1.1825,0 -2.15,-0.9675 -2.15,-2.15v0c0,-1.1825 0.9675,-2.15 2.15,-2.15h47.3c1.1825,0 2.15,0.9675 2.15,2.15v0c0,1.1825 -0.9675,2.15 -2.15,2.15z" fill="#4fb3b3"></path></g></g></svg>