<svg xmlns="http://www.w3.org/2000/svg" x="0px" y="0px"
width="50" height="50"
viewBox="0 0 172 172"
style=" fill:#000000;"><g fill="none" fill-rule="nonzero" stroke="none" stroke-width="1" stroke-linecap="butt" stroke-linejoin="miter" stroke-miterlimit="10" stroke-dasharray="" stroke-dashoffset="0" font-family="none" font-weight="none" font-size="none" text-anchor="none" style="mix-blend-mode: normal"><path d="M0,172v-172h172v172z" fill="none"></path><g fill="#4fb3b3"><path d="M63.64,6.88c-16.10773,0 -29.24,13.13227 -29.24,29.24c0,11.353 6.70775,20.95942 16.1989,25.8c-9.49116,4.84058 -16.1989,14.447 -16.1989,25.8c0,11.353 6.70775,20.95942 16.1989,25.8c-9.49116,4.84058 -16.1989,14.447 -16.1989,25.8c0,16.10773 13.13227,29.24 29.24,29.24c16.10773,0 29.24,-13.13227 29.24,-29.24v-25.8v-11.5025c4.6143,8.75641 13.52631,14.9425 24.08,14.9425c15.15814,0 27.52,-12.36187 27.52,-27.52c0,-12.45883 -8.50996,-22.60532 -19.90094,-25.97469c11.48518,-3.94744 19.90094,-14.54774 19.90094,-27.34531c0,-16.10773 -13.13227,-29.24 -29.24,-29.24h-25.8zM63.64,13.76h22.36v44.72h-22.36c-12.38923,0 -22.36,-9.97077 -22.36,-22.36c0,-12.38923 9.97077,-22.36 22.36,-22.36zM92.88,13.76h22.36c12.38923,0 22.36,9.97077 22.36,22.36c0,12.38923 -9.97077,22.36 -22.36,22.36h-22.36zM63.64,65.36h22.36v44.72h-22.36c-12.38923,0 -22.36,-9.97077 -22.36,-22.36c0,-12.38923 9.97077,-22.36 22.36,-22.36zM92.88,65.36h11.5025c-4.93609,2.60114 -8.90136,6.5664 -11.5025,11.5025zM116.96,68.8c11.43991,0 20.64,9.20009 20.64,20.64c0,11.43991 -9.20009,20.64 -20.64,20.64c-11.43991,0 -20.64,-9.20009 -20.64,-20.64c0,-11.43991 9.20009,-20.64 20.64,-20.64zM63.64,116.96h22.36v22.36c0,12.38923 -9.97077,22.36 -22.36,22.36c-12.38923,0 -22.36,-9.97077 -22.36,-22.36c0,-12.38923 9.97077,-22.36 22.36,-22.36z"></path></g></g></svg>