<svg xmlns="http://www.w3.org/2000/svg" x="0px" y="0px"
width="16" height="16"
viewBox="0 0 172 172"
style=" fill:#000000;"><g fill="none" fill-rule="nonzero" stroke="none" stroke-width="1" stroke-linecap="butt" stroke-linejoin="miter" stroke-miterlimit="10" stroke-dasharray="" stroke-dashoffset="0" font-family="none" font-weight="none" font-size="none" text-anchor="none" style="mix-blend-mode: normal"><path d="M0,172v-172h172v172z" fill="none" stroke="none"></path><g><path d="M151.8416,152.65h-76.5916c-16.6238,0 -30.1,-13.4762 -30.1,-30.1v-43c0,-11.8723 9.6277,-21.5 21.5,-21.5h85.1916" fill="none" stroke="#4fb3b3"></path><path d="M45.15,87.0922v-37.6422c0,-16.6238 13.4762,-30.1 30.1,-30.1h76.5916" fill="none" stroke="#4fb3b3"></path><path d="M151.8416,114.2166h-85.1916c-11.8723,0 -21.5,-9.6277 -21.5,-21.5" fill="none" stroke="#4fb3b3"></path><path d="M25.8,66.65c-10.68671,0 -19.35,8.66329 -19.35,19.35c0,10.68671 8.66329,19.35 19.35,19.35c10.68671,0 19.35,-8.66329 19.35,-19.35c0,-10.68671 -8.66329,-19.35 -19.35,-19.35z" fill="#4fb3b3" stroke="none"></path><path d="M25.8,68.8c9.4858,0 17.2,7.7142 17.2,17.2c0,9.4858 -7.7142,17.2 -17.2,17.2c-9.4858,0 -17.2,-7.7142 -17.2,-17.2c0,-9.4858 7.7142,-17.2 17.2,-17.2M25.8,64.5c-11.8723,0 -21.5,9.6277 -21.5,21.5c0,11.8723 9.6277,21.5 21.5,21.5c11.8723,0 21.5,-9.6277 21.5,-21.5c0,-11.8723 -9.6277,-21.5 -21.5,-21.5z" fill="#4fb3b3" stroke="none"></path><path d="M150.5,6.45c-8.31189,0 -15.05,6.73811 -15.05,15.05c0,8.31189 6.73811,15.05 15.05,15.05c8.31189,0 15.05,-6.73811 15.05,-15.05c0,-8.31189 -6.73811,-15.05 -15.05,-15.05z" fill="#4fb3b3" stroke="none"></path><path d="M150.5,8.6c7.1122,0 12.9,5.7878 12.9,12.9c0,7.1122 -5.7878,12.9 -12.9,12.9c-7.1122,0 -12.9,-5.7878 -12.9,-12.9c0,-7.1122 5.7878,-12.9 12.9,-12.9M150.5,4.3c-9.4987,0 -17.2,7.7013 -17.2,17.2c0,9.4987 7.7013,17.2 17.2,17.2c9.4987,0 17.2,-7.7013 17.2,-17.2c0,-9.4987 -7.7013,-17.2 -17.2,-17.2z" fill="#4fb3b3" stroke="none"></path><path d="M150.5,45.15c-8.31189,0 -15.05,6.73811 -15.05,15.05c0,8.31189 6.73811,15.05 15.05,15.05c8.31189,0 15.05,-6.73811 15.05,-15.05c0,-8.31189 -6.73811,-15.05 -15.05,-15.05z" fill="#e1ebf2" stroke="none"></path><path d="M150.5,47.3c7.1122,0 12.9,5.7878 12.9,12.9c0,7.1122 -5.7878,12.9 -12.9,12.9c-7.1122,0 -12.9,-5.7878 -12.9,-12.9c0,-7.1122 5.7878,-12.9 12.9,-12.9M150.5,43c-9.4987,0 -17.2,7.7013 -17.2,17.2c0,9.4987 7.7013,17.2 17.2,17.2c9.4987,0 17.2,-7.7013 17.2,-17.2c0,-9.4987 -7.7013,-17.2 -17.2,-17.2z" fill="#4fb3b3" stroke="none"></path><g stroke="none"><path d="M150.5,96.75c-8.31189,0 -15.05,6.73811 -15.05,15.05c0,8.31189 6.73811,15.05 15.05,15.05c8.31189,0 15.05,-6.73811 15.05,-15.05c0,-8.31189 -6.73811,-15.05 -15.05,-15.05z" fill="#e1ebf2"></path><path d="M150.5,98.9c7.1122,0 12.9,5.7878 12.9,12.9c0,7.1122 -5.7878,12.9 -12.9,12.9c-7.1122,0 -12.9,-5.7878 -12.9,-12.9c0,-7.1122 5.7878,-12.9 12.9,-12.9M150.5,94.6c-9.4987,0 -17.2,7.7013 -17.2,17.2c0,9.4987 7.7013,17.2 17.2,17.2c9.4987,0 17.2,-7.7013 17.2,-17.2c0,-9.4987 -7.7013,-17.2 -17.2,-17.2z" fill="#4fb3b3"></path></g><g stroke="none"><path d="M150.5,135.45c-8.31189,0 -15.05,6.73811 -15.05,15.05c0,8.31189 6.73811,15.05 15.05,15.05c8.31189,0 15.05,-6.73811 15.05,-15.05c0,-8.31189 -6.73811,-15.05 -15.05,-15.05z" fill="#e1ebf2"></path><path d="M150.5,137.6c7.1122,0 12.9,5.7878 12.9,12.9c0,7.1122 -5.7878,12.9 -12.9,12.9c-7.1122,0 -12.9,-5.7878 -12.9,-12.9c0,-7.1122 5.7878,-12.9 12.9,-12.9M150.5,133.3c-9.4987,0 -17.2,7.7013 -17.2,17.2c0,9.4987 7.7013,17.2 17.2,17.2c9.4987,0 17.2,-7.7013 17.2,-17.2c0,-9.4987 -7.7013,-17.2 -17.2,-17.2z" fill="#4fb3b3"></path></g></g></g></svg>