<svg xmlns="http://www.w3.org/2000/svg" x="0px" y="0px"
width="48" height="48"
viewBox="0 0 172 172"
style=" fill:#000000;"><g fill="none" fill-rule="nonzero" stroke="none" stroke-width="1" stroke-linecap="butt" stroke-linejoin="miter" stroke-miterlimit="10" stroke-dasharray="" stroke-dashoffset="0" font-family="none" font-weight="none" font-size="none" text-anchor="none" style="mix-blend-mode: normal"><path d="M0,172v-172h172v172z" fill="none"></path><g fill="#4fb3b3"><path d="M132.16408,26.30525c6.60408,1.82392 11.16925,7.76508 11.16925,14.534v90.16383c0,6.82983 -4.66192,12.7925 -11.352,14.56625l-41.35883,11.60642l13.29417,-28.17575v-89.58333l-11.28033,-24.67125z"></path><path d="M103.91667,125.41667v14.07175c0,13.62742 -13.70267,22.39225 -25.15142,16.09275l-24.854,-15.92792c-2.87383,-1.66983 -4.429,-5.23883 -3.45433,-8.80425c0.90658,-3.31817 4.01692,-5.43233 7.2885,-5.43233z"></path><path d="M55.384,115.48367l-12.18333,5.38217c-4.8805,2.87383 -10.95067,-0.75967 -10.95067,-6.55392v-60.90592c0,-5.504 2.90608,-10.57083 7.58233,-13.22608l42.39083,-23.96175c9.75742,-5.52908 21.6935,1.74867 21.6935,13.22967v11.0725l-35.96592,12.4915c-4.23908,1.68058 -7.03408,5.88383 -7.03408,10.56725v42.0755c0,4.05992 -2.11417,7.81167 -5.53267,9.82908z"></path></g></g></svg>