<svg xmlns="http://www.w3.org/2000/svg" x="0px" y="0px"
width="60" height="60"
viewBox="0 0 172 172"
style=" fill:#000000;"><g fill="none" fill-rule="nonzero" stroke="none" stroke-width="1" stroke-linecap="butt" stroke-linejoin="miter" stroke-miterlimit="10" stroke-dasharray="" stroke-dashoffset="0" font-family="none" font-weight="none" font-size="none" text-anchor="none" style="mix-blend-mode: normal"><path d="M0,172v-172h172v172z" fill="none"></path><g fill="#4fb3b3"><path d="M77.56237,0.14557c-20.54014,-0.15424 -39.58937,10.70513 -49.92101,28.45839c-10.33164,17.75326 -10.36273,39.68037 -0.08147,57.46286c10.28125,17.78249 29.29961,28.69583 49.84011,28.59984c12.2329,-0.00338 24.13963,-3.94546 33.95768,-11.24271l23.04531,23.04531c2.1542,2.23618 5.3482,3.1345 8.35223,2.34908c3.00403,-0.78542 5.34962,-3.13208 6.13365,-6.13648c0.78403,-3.00439 -0.11576,-6.19798 -2.35294,-8.35115l-23.04531,-23.03971c12.74699,-17.36508 14.66983,-40.41479 4.97624,-59.65189c-9.69359,-19.2371 -29.36327,-31.40633 -50.90449,-31.49355zM77.4,5.73333c28.49789,0 51.6,23.10211 51.6,51.6c0,28.49789 -23.10211,51.6 -51.6,51.6c-28.49789,0 -51.6,-23.10211 -51.6,-51.6c0.03317,-28.48414 23.11586,-51.56683 51.6,-51.6zM77.4,11.46667c-25.33146,0 -45.86667,20.53521 -45.86667,45.86667c0,25.33146 20.53521,45.86667 45.86667,45.86667c22.35352,0.01759 41.46418,-16.08168 45.24273,-38.11354c3.77855,-22.03186 -8.87561,-43.57892 -29.95757,-51.01068c-1.49663,-0.52568 -3.13604,0.26144 -3.66172,1.75807c-0.52568,1.49663 0.26144,3.13604 1.75807,3.66172c19.67117,6.95207 30.74504,27.80677 25.48628,47.99666c-5.25876,20.18989 -25.09919,32.99249 -45.66232,29.46493c-20.56313,-3.52757 -35.00223,-22.21076 -33.23128,-42.99897c1.77095,-20.78821 19.1623,-36.75976 40.02581,-36.75818c1.58322,0 2.86667,-1.28345 2.86667,-2.86667c0,-1.58322 -1.28345,-2.86667 -2.86667,-2.86667zM77.4112,22.91654c-0.99104,0.00111 -1.98142,0.05157 -2.96745,0.15117c-1.75428,0.17512 -3.2663,1.30968 -3.92487,2.94505l-1.50052,3.7569c-1.79069,0.54324 -3.52353,1.26151 -5.17344,2.1444l-3.72891,-1.5845c-1.61311,-0.71782 -3.49412,-0.455 -4.8487,0.67747c-0.75107,0.62207 -1.47186,1.29022 -2.21719,2.02122c-0.688,0.7052 -1.3579,1.4336 -1.94844,2.1388c-1.15433,1.35362 -1.43276,3.2482 -0.71667,4.87669l1.5957,3.72331c-0.8848,1.65165 -1.60494,3.38635 -2.15,5.17904l-3.7625,1.50612c-1.62393,0.65261 -2.75324,2.15046 -2.93385,3.89128c-0.09747,1.00047 -0.13437,1.99224 -0.13437,2.98984c0,0.9976 0.03977,1.99032 0.13437,2.95065c0.17126,1.7571 1.30679,3.27258 2.94505,3.93047l3.7569,1.50052c0.54506,1.79269 1.2652,3.52739 2.15,5.17904l-1.59011,3.72331c-0.72017,1.61464 -0.45725,3.49853 0.67747,4.8543c0.62207,0.7482 1.29336,1.46612 2.01003,2.21719c0.70233,0.68513 1.43074,1.3579 2.1388,1.94844c1.35595,1.14984 3.24887,1.42585 4.87669,0.71107l3.72331,-1.5901c1.65148,0.88515 3.38622,1.6053 5.17903,2.15l1.50052,3.7625c0.65379,1.62067 2.14792,2.74881 3.88568,2.93385c1.97805,0.17776 3.96805,0.17776 5.94609,0c1.7637,-0.1688 3.28614,-1.30686 3.94727,-2.95065l1.50052,-3.7569c1.79069,-0.54324 3.52353,-1.26151 5.17344,-2.1444l3.72891,1.5845c1.6134,0.71571 3.49326,0.45305 4.8487,-0.67747c0.75107,-0.62207 1.47186,-1.29022 2.21719,-2.02122c0.688,-0.7052 1.3579,-1.4336 1.94844,-2.1388c1.15433,-1.35362 1.43276,-3.2482 0.71667,-4.87669l-1.5957,-3.72331c0.8848,-1.65165 1.60494,-3.38635 2.15,-5.17904l3.7625,-1.50612c1.62393,-0.65261 2.75324,-2.15046 2.93385,-3.89128c0.09747,-0.9976 0.13437,-1.98665 0.13437,-2.98425c0,-0.9976 -0.03977,-1.99032 -0.13437,-2.95065c-0.16926,-1.75918 -1.30513,-3.27727 -2.94505,-3.93607l-3.7569,-1.50052c-0.54506,-1.79269 -1.2652,-3.52739 -2.15,-5.17904l1.59011,-3.72331c0.72017,-1.61464 0.45725,-3.49853 -0.67747,-4.8543c-0.62207,-0.7482 -1.29336,-1.46612 -2.01003,-2.21719c-0.70233,-0.68513 -1.43074,-1.3579 -2.1388,-1.94844c-1.35595,-1.14984 -3.24887,-1.42585 -4.87669,-0.71107l-3.72331,1.5901c-1.65148,-0.88515 -3.38622,-1.6053 -5.17903,-2.15l-1.51732,-3.7569c-0.65274,-1.62148 -2.14744,-2.75004 -3.88568,-2.93385c-0.9916,-0.10016 -1.9876,-0.15062 -2.98425,-0.15117zM78.21185,28.67227c0.32129,0.01087 0.64235,0.02767 0.96302,0.05039l1.80846,4.49597c0.34323,0.85804 1.07907,1.49799 1.97643,1.71888c2.23261,0.5519 4.36928,1.43715 6.33802,2.62591c0.78929,0.4779 1.76036,0.54666 2.60911,0.18477l4.45677,-1.90365c0.45293,0.39847 0.8837,0.80271 1.28216,1.19258c0.42427,0.43287 0.8359,0.85955 1.24297,1.33255l-1.90365,4.45677c-0.3619,0.84876 -0.29313,1.81983 0.18477,2.60911c1.18756,1.96935 2.07273,4.10584 2.62591,6.33802c0.22089,0.89736 0.86084,1.6332 1.71888,1.97643l4.49597,1.79727c0.04013,0.59627 0.05599,1.1898 0.05599,1.78607c0,0.59627 -0.01586,1.1812 -0.05599,1.78607l-4.49597,1.79727c-0.85804,0.34323 -1.49799,1.07907 -1.71888,1.97643c-0.55318,2.23218 -1.43835,4.36867 -2.62591,6.33802c-0.4779,0.78929 -0.54666,1.76036 -0.18477,2.60911l1.90365,4.45677c-0.3956,0.45293 -0.80544,0.88643 -1.19818,1.28776c-0.39273,0.40133 -0.85682,0.82744 -1.32695,1.23737l-4.45677,-1.90365c-0.84876,-0.3619 -1.81983,-0.29313 -2.60911,0.18477c-1.96874,1.18877 -4.10542,2.07401 -6.33802,2.62591c-0.89736,0.22089 -1.6332,0.86084 -1.97643,1.71888l-1.79727,4.49597c-1.18932,0.08145 -2.38282,0.08145 -3.57214,0l-1.79727,-4.49597c-0.34323,-0.85804 -1.07907,-1.49799 -1.97643,-1.71888c-2.23197,-0.5484 -4.36862,-1.42985 -6.33802,-2.61471c-0.79021,-0.47607 -1.76124,-0.54275 -2.60911,-0.17917l-4.45677,1.90364c-0.45293,-0.39847 -0.8837,-0.80831 -1.28216,-1.19818c-0.39847,-0.38987 -0.8359,-0.85955 -1.24297,-1.33255l1.90365,-4.45677c0.3619,-0.84876 0.29313,-1.81983 -0.18477,-2.60911c-1.18756,-1.96935 -2.07273,-4.10584 -2.62591,-6.33802c-0.22089,-0.89736 -0.86084,-1.6332 -1.71888,-1.97643l-4.49597,-1.79167c-0.04013,-0.60773 -0.05599,-1.2066 -0.05599,-1.80286c0,-0.59627 0.00152,-1.1812 0.05599,-1.78607l4.49597,-1.79727c0.85804,-0.34323 1.49799,-1.07907 1.71888,-1.97643c0.55318,-2.23218 1.43835,-4.36867 2.62591,-6.33802c0.4779,-0.78929 0.54666,-1.76036 0.18477,-2.60911l-1.91484,-4.45677c0.3956,-0.45293 0.80544,-0.88643 1.19818,-1.28776c0.39273,-0.40133 0.85682,-0.82744 1.32695,-1.23737l4.45677,1.90365c0.84876,0.3619 1.81983,0.29313 2.60911,-0.18477c1.96874,-1.18877 4.10542,-2.07401 6.33802,-2.62591c0.89736,-0.22089 1.6332,-0.86084 1.97643,-1.71888l1.79167,-4.49597c0.87018,-0.06041 1.74285,-0.07723 2.61471,-0.05039zM77.4,43c-7.91215,0.00948 -14.32386,6.42118 -14.33333,14.33333c0,7.91608 6.41725,14.33333 14.33333,14.33333c7.91608,0 14.33333,-6.41725 14.33333,-14.33333c0,-7.91608 -6.41725,-14.33333 -14.33333,-14.33333zM77.4,48.73333c4.74965,0 8.6,3.85035 8.6,8.6c0,4.74965 -3.85035,8.6 -8.6,8.6c-4.74965,0 -8.6,-3.85035 -8.6,-8.6c0,-4.74965 3.85035,-8.6 8.6,-8.6zM119.8457,95.73099l22.64778,22.66458c0.54376,0.52507 0.85087,1.24853 0.85087,2.00443c0,0.7559 -0.3071,1.47936 -0.85087,2.00443c-1.11684,1.10437 -2.91441,1.10437 -4.03125,0l-22.64778,-22.64219c1.4104,-1.27853 2.75463,-2.62467 4.03125,-4.03125zM120.64636,129.0056c-5.30865,-0.11389 -9.99445,3.44862 -11.3043,8.5944h-106.47539c-1.58322,0 -2.86667,1.28345 -2.86667,2.86667c0,1.58322 1.28345,2.86667 2.86667,2.86667h106.47539c1.28956,5.0542 5.84182,8.59082 11.05794,8.59082c5.21612,0 9.76839,-3.53662 11.05794,-8.59082h37.67539c1.58322,0 2.86667,-1.28345 2.86667,-2.86667c0,-1.58322 -1.28345,-2.86667 -2.86667,-2.86667h-37.67539c-1.26454,-4.96791 -5.68647,-8.48302 -10.81159,-8.5944zM120.15925,134.73893c1.56087,-0.0656 3.08092,0.50858 4.20861,1.58977c1.12768,1.08118 1.76533,2.57572 1.76548,4.13797c0,3.16643 -2.5669,5.73333 -5.73333,5.73333c-3.11473,-0.00666 -5.65439,-2.49886 -5.71981,-5.61291c-0.06541,-3.11406 2.36735,-5.7107 5.47906,-5.84816zM57.57969,149.07227c-5.30865,-0.11389 -9.99445,3.44862 -11.3043,8.5944h-43.40872c-1.58322,0 -2.86667,1.28345 -2.86667,2.86667c0,1.58322 1.28345,2.86667 2.86667,2.86667h43.40872c1.28956,5.0542 5.84182,8.59082 11.05794,8.59082c5.21612,0 9.76839,-3.53662 11.05794,-8.59082h100.74206c1.58322,0 2.86667,-1.28345 2.86667,-2.86667c0,-1.58322 -1.28345,-2.86667 -2.86667,-2.86667h-100.74206c-1.26454,-4.96791 -5.68647,-8.48302 -10.81159,-8.5944zM57.09258,154.8056c1.56087,-0.0656 3.08092,0.50858 4.20861,1.58977c1.12768,1.08118 1.76533,2.57572 1.76548,4.13797c0,3.16643 -2.5669,5.73333 -5.73333,5.73333c-3.11473,-0.00666 -5.65439,-2.49886 -5.71981,-5.61291c-0.06541,-3.11406 2.36735,-5.7107 5.47906,-5.84816z"></path></g></g></svg>